<?xml version="1.0" standalone="no"?>
<!DOCTYPE svg PUBLIC "-//W3C//DTD SVG 20010904//EN"
 "http://www.w3.org/TR/2001/REC-SVG-20010904/DTD/svg10.dtd">
<svg version="1.0" xmlns="http://www.w3.org/2000/svg"
 width="1280.000000pt" height="922.000000pt" viewBox="0 0 1280.000000 922.000000"
 preserveAspectRatio="xMidYMid meet">
<g transform="translate(0.000000,922.000000) scale(0.100000,-0.100000)"
fill="#000000" stroke="none">
<path d="M7183 9200 c-78 -15 -124 -30 -202 -70 -56 -28 -131 -57 -168 -66
-90 -21 -123 -39 -233 -133 -77 -65 -116 -89 -205 -129 -168 -74 -284 -150
-357 -235 -71 -83 -146 -195 -213 -322 -37 -71 -71 -114 -156 -203 -108 -112
-109 -113 -134 -200 -14 -48 -64 -200 -111 -338 -66 -198 -84 -263 -84 -308 0
-33 -7 -70 -16 -88 -12 -22 -13 -33 -4 -38 6 -4 77 -22 158 -39 241 -54 507
-146 675 -234 104 -54 202 -143 209 -189 3 -21 25 -30 211 -87 l208 -64 42 41
c42 42 43 42 117 42 91 0 228 -15 335 -36 140 -28 515 -141 655 -197 344 -139
350 -142 422 -215 60 -60 67 -72 75 -121 l8 -54 230 -174 c573 -433 705 -535
771 -601 l70 -69 17 -95 c23 -126 22 -142 -8 -162 -44 -29 -52 -22 -85 82 -21
64 -41 105 -58 122 -15 14 -124 96 -242 182 l-215 156 -289 112 -289 113 -91
-97 -91 -96 -70 0 c-177 1 -225 15 -738 222 l-479 193 -74 104 -74 105 5 125
c3 69 8 145 10 168 3 26 0 45 -8 52 -21 17 -376 134 -390 128 -7 -3 -29 -47
-50 -98 -32 -80 -48 -106 -112 -175 -95 -104 -134 -122 -282 -130 -208 -12
-434 28 -753 132 -22 7 -212 -598 -246 -779 -31 -170 -64 -329 -125 -601 -27
-121 -49 -225 -49 -232 0 -7 42 -37 93 -67 50 -30 102 -66 114 -78 32 -36 92
-145 112 -208 31 -94 44 -282 40 -563 -3 -142 -2 -258 0 -258 3 0 103 97 222
215 l216 216 184 -2 c171 -1 190 0 264 24 44 13 136 42 205 63 l125 38 224 -2
c219 -3 225 -4 310 -34 47 -16 99 -42 114 -56 40 -38 162 -183 176 -210 11
-21 105 -412 151 -627 l21 -101 -31 -154 c-18 -88 -34 -202 -37 -265 -6 -122
-15 -147 -69 -195 l-37 -32 12 -107 c23 -186 68 -332 132 -423 16 -22 19 -45
19 -137 0 -132 -20 -242 -60 -328 -28 -60 -36 -68 -297 -275 -630 -502 -658
-521 -898 -602 -354 -120 -566 -216 -770 -350 l-130 -86 3842 0 3843 0 -26 58
c-38 85 -97 171 -159 230 -30 29 -66 75 -80 102 -43 84 -91 129 -190 177 -49
23 -147 85 -217 136 -328 239 -666 414 -1088 564 -179 63 -370 119 -820 239
-821 219 -1037 292 -1395 469 -191 94 -246 117 -325 134 -118 26 -135 36 -170
104 -18 34 -48 83 -67 109 -26 36 -33 53 -28 70 17 57 79 194 94 208 9 9 25
33 36 55 11 22 96 117 190 211 163 164 172 171 225 184 193 44 378 156 632
383 120 107 177 211 267 486 59 176 81 229 180 416 50 94 53 102 49 160 -3 46
-14 83 -46 150 -42 86 -42 88 -25 113 56 78 109 168 149 252 25 52 57 118 71
145 53 103 92 182 125 254 18 41 46 92 61 113 16 22 35 69 43 106 41 178 96
387 105 398 28 34 39 357 21 584 -24 297 -56 421 -139 550 -24 36 -43 74 -43
85 0 11 -20 71 -43 133 -37 94 -50 118 -85 147 -22 20 -44 46 -47 58 -13 41
-58 132 -84 166 -14 19 -63 71 -108 115 -45 45 -98 109 -118 143 -20 35 -48
71 -62 80 -28 19 -101 90 -168 164 -22 24 -69 64 -105 89 -35 25 -119 99 -185
165 -123 123 -136 132 -310 210 -33 15 -142 76 -241 136 -100 60 -221 127
-268 150 -63 29 -102 56 -145 99 l-58 58 -79 -5 c-96 -7 -307 10 -469 38 -172
29 -335 32 -462 9z"/>
<path d="M5044 7060 c-39 -4 -84 -15 -101 -23 -65 -34 -118 -122 -159 -268
-23 -80 -26 -104 -22 -202 5 -121 22 -178 58 -197 19 -10 19 -8 -6 29 -25 38
-26 46 -20 112 9 100 17 112 69 104 61 -10 155 -66 259 -153 l90 -75 -8 -41
c-4 -23 -8 -54 -8 -71 l-1 -30 199 -57 c198 -57 199 -57 377 -64 170 -7 180
-6 233 16 47 18 64 34 110 94 58 76 79 114 120 215 49 121 37 150 -102 243
-92 62 -125 77 -266 124 -203 69 -311 98 -464 128 l-122 23 0 -26 c0 -14 -9
-66 -20 -115 -11 -49 -17 -93 -14 -97 3 -5 2 -50 -2 -100 -9 -116 -20 -122
-87 -48 -61 67 -227 281 -246 316 -12 22 -11 30 3 60 9 19 28 38 43 44 33 13
167 15 241 5 51 -8 52 -7 52 17 0 17 -7 26 -22 30 -50 12 -117 15 -184 7z"/>
<path d="M6893 6463 c-34 -3 -48 -11 -67 -36 -42 -57 -53 -90 -70 -222 -9 -71
-19 -141 -22 -155 -4 -20 11 -45 65 -116 39 -51 76 -94 83 -97 7 -3 209 -84
448 -180 486 -195 603 -232 727 -225 73 3 76 5 113 44 20 22 47 67 59 100 33
86 88 292 96 356 l7 55 -48 54 c-26 30 -57 60 -69 66 -13 7 -117 50 -231 97
-516 208 -829 282 -1091 259z"/>
<path d="M5095 6240 c3 -5 8 -10 11 -10 2 0 4 5 4 10 0 6 -5 10 -11 10 -5 0
-7 -4 -4 -10z"/>
<path d="M4531 4509 c-54 -58 -74 -148 -51 -229 48 -168 44 -247 -17 -327
l-36 -47 -43 -341 c-64 -500 -70 -538 -108 -677 l-35 -127 2 -340 c2 -385 8
-356 -83 -384 -37 -11 -91 -43 -165 -99 -398 -297 -785 -485 -1329 -648 -72
-21 -295 -82 -496 -135 -638 -169 -849 -239 -1135 -380 -184 -90 -323 -175
-468 -284 -99 -75 -275 -233 -326 -293 -18 -20 -70 -67 -116 -104 -47 -36 -85
-70 -85 -74 0 -16 471 -20 2671 -20 l2326 0 -4 23 c-7 35 27 68 147 142 225
140 473 253 777 356 240 80 260 93 883 588 246 195 256 204 279 259 35 87 61
198 61 268 0 55 -6 75 -55 176 -68 140 -102 258 -115 398 -12 127 -6 149 47
183 21 13 43 31 49 38 7 8 14 71 17 144 3 84 14 176 31 261 l27 130 -77 325
c-42 178 -81 333 -87 344 -6 11 -46 62 -91 112 l-80 93 -93 31 -94 31 -178
-11 c-185 -11 -275 -26 -566 -91 -169 -38 -175 -39 -263 -28 l-90 12 -252
-245 c-138 -134 -260 -248 -270 -253 -28 -13 -67 1 -74 26 -3 13 -1 152 6 311
10 260 9 300 -7 415 -36 263 -91 355 -262 442 -107 54 -143 60 -172 29z"/>
</g>
</svg>
